<?xml version="1.0" encoding="UTF-8" standalone="no"?><svg xmlns="http://www.w3.org/2000/svg" xmlns:xlink="http://www.w3.org/1999/xlink" fill="#feffff" height="398.7" preserveAspectRatio="xMidYMid meet" version="1" viewBox="0.0 0.0 400.0 398.7" width="400" zoomAndPan="magnify"><g id="change1_1"><path d="M178.27,142.06h7.29v8.3c0,3.55,2.88,6.43,6.43,6.43s6.43-2.88,6.43-6.43v-8.3h3.76v8.3c0,3.55,2.88,6.43,6.43,6.43 s6.43-2.88,6.43-6.43v-8.75c5.42-1.02,10.27-3.75,14.01-7.64c4.74-4.92,7.69-11.7,7.69-19.12c0-7.42-2.95-14.19-7.69-19.11 c-0.56-0.58-1.14-1.13-1.75-1.66c0.6-0.53,1.19-1.08,1.75-1.66v0c4.74-4.92,7.69-11.7,7.69-19.12c0-7.42-2.95-14.19-7.69-19.11 c-3.74-3.89-8.6-6.62-14.01-7.64v-8.75c0-3.55-2.88-6.43-6.43-6.43c-3.55,0-6.43,2.88-6.43,6.43v8.3h-3.76v-8.3 c0-3.55-2.88-6.43-6.43-6.43s-6.43,2.88-6.43,6.43v8.3h-7.29c-3.55,0-6.43,2.88-6.43,6.43v83.1 C171.84,139.18,174.72,142.06,178.27,142.06z M184.7,87.66V58.97h7.28c0,0,0,0,0.01,0s0,0,0.01,0h16.61c0,0,0,0,0.01,0s0,0,0.01,0 h1.69c3.7,0,7.06,1.58,9.51,4.12c2.51,2.6,4.07,6.22,4.07,10.23c0,4-1.56,7.62-4.07,10.23c-2.44,2.54-5.81,4.12-9.51,4.12 L184.7,87.66L184.7,87.66z M184.7,100.51h25.6v0c3.69,0,7.06,1.58,9.51,4.12c2.51,2.6,4.07,6.23,4.07,10.23 c0,4-1.56,7.62-4.07,10.23c-2.44,2.54-5.81,4.12-9.51,4.12h-1.69c0,0,0,0-0.01,0s0,0-0.01,0H192c0,0,0,0-0.01,0s0,0-0.01,0h-7.28 V100.51z M399.97,185.9c0-7.79-2.8-15.6-8.39-21.62l-0.44-0.49l-0.75-0.72c-5.64-5.43-12.82-8.22-20.04-8.39 c-0.21-2.08-0.61-4.13-1.24-6.13c-1.37-4.36-3.74-8.46-7.08-12.04l-0.43-0.48l-0.75-0.73c-5.81-5.6-13.26-8.4-20.7-8.4 c-7.27,0-14.56,2.68-20.31,8.04l-0.49,0.44c-25.76,26.8-51.57,53.56-77.36,80.33l-138.93,0.12c-0.18-0.03-0.35-0.05-0.53-0.06 c-4.32-0.31-8.71,0.33-12.85,1.93c-3.96,1.53-7.66,3.94-10.82,7.21L1.81,304.93c-0.41,0.42-0.74,0.89-1,1.38 c0,0.01-0.01,0.01-0.01,0.02c-0.09,0.17-0.18,0.35-0.25,0.53c-0.01,0.01-0.01,0.03-0.02,0.04c-0.07,0.17-0.14,0.35-0.19,0.53 c-0.01,0.02-0.01,0.04-0.02,0.06c-0.06,0.18-0.1,0.36-0.14,0.55c0,0.02-0.01,0.04-0.01,0.06c-0.04,0.2-0.07,0.39-0.09,0.59 c0,0.01,0,0.02,0,0.03c-0.03,0.28-0.04,0.56-0.03,0.83l0,82.17L0,392.31c0,3.55,2.88,6.43,6.43,6.43H76.6v-0.03 c1.72,0,3.44-0.69,4.69-2.05l17.47-18.87l160.7-41.99c5.23-1.68,10.49-4.81,15.57-8.78v-0.03c4.81-3.75,9.59-8.32,14.09-13.13 c0.03-0.04,0.06-0.07,0.09-0.11c0.19-0.15,0.37-0.32,0.54-0.49L391.21,207.9c5.85-6.08,8.79-14.06,8.79-22H399.97z M328.62,144.28 c3.27-3.01,7.4-4.51,11.52-4.51c4.21,0,8.43,1.57,11.72,4.71l0.86,0.85c1.97,2.12,3.35,4.52,4.15,7.04 c0.49,1.56,0.76,3.19,0.81,4.84c-2.98,1.32-5.79,3.15-8.3,5.49l-0.49,0.44c-24.72,25.72-49.48,51.4-74.24,77.1 c-1.26-5.88-4.12-11.15-8.09-15.28c-2.66-2.76-5.81-5.01-9.3-6.61C281.05,193.68,304.92,169.05,328.62,144.28z M387.14,185.9 c0,4.78-1.73,9.54-5.17,13.12L280.52,304.36c-0.09,0.1-0.17,0.2-0.26,0.3c-0.16,0.14-0.32,0.3-0.48,0.46l0,0 c-4.04,4.31-8.32,8.41-12.64,11.75c-3.98,3.1-7.89,5.49-11.47,6.67l-161.93,42.3c-1.36,0.35-2.5,1.12-3.33,2.12l-16.58,17.91H12.83 l0-73.91l75.26-78.16c1.82-1.89,3.94-3.27,6.2-4.14c2.32-0.9,4.83-1.26,7.32-1.08c0.13,0.01,0.26,0.01,0.38,0.01 c0.27,0.03,0.54,0.06,0.81,0.06l0,0l142.23-0.13l0.02,0.03c4.76,0,9.1,2.03,12.25,5.3c3.23,3.36,5.24,7.99,5.24,13.08l-0.03,0.02 c0,5.12-2,9.75-5.22,13.09c-3.15,3.27-7.5,5.31-12.27,5.31h-99c-3.55,0-6.43,2.88-6.43,6.43c0,3.55,2.88,6.43,6.43,6.43h99 c8.38,0,16-3.55,21.51-9.28c2.05-2.13,3.8-4.55,5.2-7.21c28.77-29.86,57.94-59.58,86.41-89.69c3.27-3.01,7.4-4.51,11.53-4.51 c4.22,0,8.43,1.57,11.72,4.71l0.84,0.83c3.28,3.56,4.92,8.19,4.92,12.83H387.14z M200,188.17c51.96,0,94.09-42.12,94.09-94.09 c0-25.98-10.53-49.5-27.56-66.53C249.51,10.53,225.98,0,200,0c-51.96,0-94.09,42.12-94.09,94.09S148.04,188.17,200,188.17z M200,12.86c22.43,0,42.74,9.09,57.44,23.79c14.7,14.7,23.79,35.01,23.79,57.44c0,44.86-36.37,81.23-81.23,81.23 c-44.86,0-81.23-36.37-81.23-81.23S155.14,12.86,200,12.86z"/></g></svg>