<?xml version="1.0" encoding="UTF-8"?><svg xmlns="http://www.w3.org/2000/svg" xmlns:xlink="http://www.w3.org/1999/xlink" height="1352.8" preserveAspectRatio="xMidYMid meet" version="1.0" viewBox="323.6 323.6 1352.8 1352.8" width="1352.8" zoomAndPan="magnify"><g><g id="change1_1"><path d="M 1221.101562 872.03125 C 1215.238281 919.378906 1174.898438 956.050781 1125.960938 956.050781 C 1072.988281 956.050781 1030.058594 913.109375 1030.058594 860.148438 C 1030.058594 814.660156 1061.738281 776.589844 1104.238281 766.75 C 1072.398438 752.5 1037.140625 744.511719 1000 744.511719 C 858.894531 744.511719 744.507812 858.890625 744.507812 1000 C 744.507812 1141.109375 858.894531 1255.488281 1000 1255.488281 C 1141.109375 1255.488281 1255.5 1141.109375 1255.5 1000 C 1255.5 953.351562 1242.929688 909.671875 1221.101562 872.03125" fill="#393536"/></g><g id="change2_1"><path d="M 1052.957031 1521.832031 C 879.96875 1521.832031 726.664062 1437.632812 631.71875 1308.003906 C 732.847656 1464.28125 908.667969 1567.710938 1108.667969 1567.710938 C 1422.203125 1567.710938 1676.375 1313.542969 1676.375 1000.003906 L 1574.792969 1000.003906 C 1574.792969 1288.203125 1341.148438 1521.832031 1052.957031 1521.832031" fill="#f89b0f"/></g><g id="change3_1"><path d="M 947.039062 478.171875 C 1120.03125 478.171875 1273.328125 562.371094 1368.28125 691.988281 C 1267.148438 535.71875 1091.328125 432.289062 891.332031 432.289062 C 577.796875 432.289062 323.621094 686.460938 323.621094 1000 L 425.203125 1000 C 425.203125 711.800781 658.839844 478.171875 947.039062 478.171875" fill="#ec0b62"/></g><g id="change4_1"><path d="M 478.167969 1052.960938 C 478.167969 879.96875 562.367188 726.671875 691.996094 631.71875 C 535.722656 732.851562 432.289062 908.671875 432.289062 1108.671875 C 432.289062 1422.210938 686.464844 1676.378906 1000 1676.378906 L 1000 1574.800781 C 711.800781 1574.800781 478.167969 1341.160156 478.167969 1052.960938" fill="#3d6abc"/></g><g id="change5_1"><path d="M 1521.828125 947.042969 C 1521.828125 1120.03125 1437.628906 1273.332031 1307.992188 1368.28125 C 1464.277344 1267.152344 1567.707031 1091.332031 1567.707031 891.332031 C 1567.707031 577.796875 1313.535156 323.625 999.996094 323.625 L 999.996094 425.207031 C 1288.195312 425.207031 1521.828125 658.839844 1521.828125 947.042969" fill="#9a158e"/></g><g id="change6_1"><path d="M 1000 1383.070312 C 788.4375 1383.070312 616.933594 1211.558594 616.933594 1000 C 616.933594 788.441406 788.4375 616.929688 1000 616.929688 C 1211.558594 616.929688 1383.070312 788.441406 1383.070312 1000 C 1383.070312 1211.558594 1211.558594 1383.070312 1000 1383.070312 Z M 1000 576.96875 C 766.367188 576.96875 576.96875 766.371094 576.96875 1000 C 576.96875 1233.628906 766.367188 1423.03125 1000 1423.03125 C 1233.628906 1423.03125 1423.03125 1233.628906 1423.03125 1000 C 1423.03125 766.371094 1233.628906 576.96875 1000 576.96875" fill="#a7a5a6"/></g></g></svg>