<?xml version="1.0" encoding="UTF-8" standalone="no"?><svg xmlns="http://www.w3.org/2000/svg" xmlns:xlink="http://www.w3.org/1999/xlink" fill="#feffff" height="54" preserveAspectRatio="xMidYMid meet" version="1" viewBox="0.0 5.0 64.0 54.0" width="64" zoomAndPan="magnify"><g id="change1_1"><path d="M34,27c-2.20917,0-4-1.79089-4-4v-1c0-2.20917,1.79083-4,4-4s4,1.79083,4,4v1c0,2.20911-1.79083,4-4,4Zm7,5c0-2.76141-2.23859-5-5-5h-4c-2.76141,0-5,2.23859-5,5v2h14v-2Zm5-6.78143c-.50159-1.14941-1.18231-2.20013-2-3.12927v11.91071c0,1.6543-1.3457,3-3,3h-15.72681c.52942,.73352,1.13837,1.4035,1.8161,2h13.91071c2.75684,0,5-2.24316,5-5v-8.78143Zm18,30.953c0,1.56207-1.26636,2.82843-2.82843,2.82843-.75012,0-1.46954-.29803-2-.82843l-13.61444-13.61444c-2.96777,2.15625-6.60809,3.44287-10.55713,3.44287-6.65863,0-12.45862-3.625-15.57227-9H5c-2.75684,0-5-2.24316-5-5V10c0-2.75684,2.24316-5,5-5H41c2.75684,0,5,2.24316,5,5v5.77405c4.25159,3.29236,7,8.43243,7,14.22595,0,3.94904-1.28662,7.58929-3.44287,10.55713l13.61444,13.61444c.53046,.5304,.82843,1.24982,.82843,2ZM18.41223,37c-.90918-2.15179-1.41223-4.51715-1.41223-7,0-9.94116,8.0589-18,18-18,3.28247,0,6.35028,.89282,9,2.42773v-4.42773c0-1.6543-1.3457-3-3-3H5c-1.6543,0-3,1.3457-3,3v24c0,1.6543,1.3457,3,3,3h13.41223Zm16.58777,8c8.27106,0,15-6.729,15-15s-6.72894-15-15-15-15,6.72894-15,15,6.729,15,15,15ZM14,31H5c-.55273,0-1,.44775-1,1s.44727,1,1,1H14c.55273,0,1-.44775,1-1s-.44727-1-1-1Zm0-6H5c-.55273,0-1,.44775-1,1s.44727,1,1,1H14c.55273,0,1-.44775,1-1s-.44727-1-1-1Zm1-7H5c-.55273,0-1,.44775-1,1s.44727,1,1,1H15c.55273,0,1-.44775,1-1s-.44727-1-1-1ZM5,13h4c.55273,0,1-.44775,1-1s-.44727-1-1-1H5c-.55273,0-1,.44775-1,1s.44727,1,1,1Zm8,0h4c.55273,0,1-.44775,1-1s-.44727-1-1-1h-4c-.55273,0-1,.44775-1,1s.44727,1,1,1Zm8,0h2c.55273,0,1-.44775,1-1s-.44727-1-1-1h-2c-.55273,0-1,.44775-1,1s.44727,1,1,1Z"/></g></svg>