<?xml version="1.0" encoding="UTF-8"?><svg xmlns="http://www.w3.org/2000/svg" xmlns:xlink="http://www.w3.org/1999/xlink" data-name="Layer 1" height="78.7" preserveAspectRatio="xMidYMid meet" version="1.0" viewBox="0.0 -0.4 92.8 78.7" width="92.8" zoomAndPan="magnify"><g id="change1_1"><path d="M31.23,2.16l-.83.26a49.71,49.71,0,0,0-5.93,2.27l-.23.1,0,.25c-2.77,13.28-6.31,30-9.61,43.69q-.47-5.92-.92-11.58C15.37,29.38,17.3,20,19.59,8.47l.22-1.14-1,.62a48,48,0,0,0-4.41,3.13l-.14.12,0,.18c-1.07,5.77-2.05,10.88-3,15.52-.21-3.82-.43-7.56-.65-11.2l-.06-1.16-.8.85a45.92,45.92,0,0,0-3.5,4.25l-.1.15V20q.64,8.54,1.31,18.4c-.72,3.16-1.39,5.92-2,8.34C4.84,38.32,4.23,31.2,3.69,25.49l-.16-1.72-.78,1.54A46.33,46.33,0,0,0,0,31.83l0,.11,0,.11C.69,36.84,1.48,45,2.44,56.89V57l.09.12a28.9,28.9,0,0,0,2.61,3l.56.55L6,59.93c1.11-3.14,2.35-7.32,3.76-12.72q.74,8.31,1.51,17.49l0,.24.21.14c1.16.73,2.41,1.43,3.71,2.08l.54.27.17-.59C20.63,49.72,26.2,24.91,31,3ZM15.1,66c-1-.51-2-1.06-2.88-1.62q-.9-10.63-1.74-20.14l-1-.07c-1.6,6.3-3,11.12-4.2,14.69-.67-.71-1.3-1.44-1.87-2.18C2.48,44.89,1.69,36.83,1,32a49.57,49.57,0,0,1,1.84-4.66C3.42,33.43,4,40.94,4.71,49.71l1,.1c.85-3.08,1.77-6.77,2.8-11.29l0-.07v-.07q-.66-9.8-1.3-18.3C8,19,8.83,18,9.72,17q.39,6.77.8,13.94l1,.07c1.12-5.58,2.32-11.87,3.69-19.21,1-.81,2.08-1.59,3.18-2.32-2.19,11-4.06,20.06-5.71,27.58v.15q.59,7.16,1.17,14.78l1,.08c3.49-14.19,7.33-32.28,10.3-46.53a50.64,50.64,0,0,1,4.77-1.85C25.13,25.07,19.73,49.14,15.1,66Z" fill="#fff"/></g><g id="change1_2"><path d="M48.06,43.2h.46l1-13.87H49c-3.71-.05-7.44,0-11.1.21L39,15.16A77.43,77.43,0,0,1,52.08,15l.5,0L53.7.48,53.23.42A54.68,54.68,0,0,0,33.84,1.47l-.35.08,0,.37C31.36,29.13,29.63,51.17,28,71.28l0,.43.42.1a81.09,81.09,0,0,0,18,2l1.44,0h.45L49.51,59H49c-4.49.07-9,0-13.35-.34l1.19-15.4C40.51,43.21,44.29,43.19,48.06,43.2Zm-12.18-1L34.54,59.56l.5,0c4.38.31,8.87.44,13.39.39l-1,12.81a80,80,0,0,1-18.36-1.87c1.6-19.9,3.31-41.72,5.38-68.57a53.73,53.73,0,0,1,18.2-1L51.66,14a78.6,78.6,0,0,0-13.2.22l-.42.05L36.83,30.59l.57,0c3.65-.21,7.37-.29,11.08-.24L47.59,42.2c-3.77,0-7.55,0-11.25,0Z" fill="#fff"/></g><g id="change1_3"><path d="M68.11,32.34a1.63,1.63,0,0,0,.31,0,2.39,2.39,0,0,0,1.81-1,7.16,7.16,0,0,0,1.35-2.88,17.62,17.62,0,0,0,.5-4.59,13.38,13.38,0,0,0-.61-4.39c-.46-1.29-1-2-1.79-2.3A64.53,64.53,0,0,0,63,15.36l-.57-.13,0,.58q-.59,7.53-1.19,15.2l0,.49.48.05C63.87,31.76,66,32,68.11,32.34ZM63.35,16.47a60.62,60.62,0,0,1,6,1.73c.43.15.84.73,1.17,1.68a12.53,12.53,0,0,1,.56,4.06,17,17,0,0,1-.46,4.33,6.51,6.51,0,0,1-1.14,2.49,1.34,1.34,0,0,1-1.23.59c-1.93-.29-4-.54-6-.75Q62.8,23.48,63.35,16.47Z" fill="#fff"/></g><g id="change1_4"><path d="M52.29,73.6l.58,0A76,76,0,0,0,66,71.42,9.57,9.57,0,0,0,71,67.62a23.74,23.74,0,0,0,3.54-7.56,37.25,37.25,0,0,0,1.31-10.47A28.15,28.15,0,0,0,75,41.88a11.59,11.59,0,0,0-2.24-4.51,14.92,14.92,0,0,0,3.17-6.18,32.18,32.18,0,0,0,1.22-9A39.85,39.85,0,0,0,76.67,16a27,27,0,0,0-1.45-5.51,6.81,6.81,0,0,0-2.56-3.57A49.88,49.88,0,0,0,58.55,1.37L58,1.24l0,.58C56,26.61,54,51.72,52.33,73Zm6.6-71.12A49.22,49.22,0,0,1,72.16,7.79a6,6,0,0,1,2.13,3.07,26.55,26.55,0,0,1,1.39,5.31,39,39,0,0,1,.45,6A31,31,0,0,1,75,30.92,13.43,13.43,0,0,1,71.69,37l-.38.36.38.37A9.77,9.77,0,0,1,74,42.16a27.24,27.24,0,0,1,.87,7.43,36.42,36.42,0,0,1-1.27,10.19A22.42,22.42,0,0,1,70.24,67a8.69,8.69,0,0,1-4.51,3.45,75.61,75.61,0,0,1-12.35,2.05C55,51.51,56.94,26.85,58.89,2.48Z" fill="#fff"/></g><g id="change1_5"><path d="M66.86,59.12A3.26,3.26,0,0,0,69,57.46a11.87,11.87,0,0,0,1.4-3.55A20,20,0,0,0,71,49.2a15.35,15.35,0,0,0-.6-4.51c-.45-1.49-1.15-2.25-2.07-2.27-2.41-.05-4.92-.1-7.48-.13h-.47L59,60l.59,0c2.5-.22,5-.5,7.31-.84Zm-6.81-.21L61.26,43.3c2.39,0,4.73.07,7,.12.56,0,.93.86,1.15,1.56A14.45,14.45,0,0,1,70,49.2a18.49,18.49,0,0,1-.5,4.47,10.9,10.9,0,0,1-1.26,3.25,2.3,2.3,0,0,1-1.48,1.21C64.57,58.44,62.33,58.7,60.05,58.91Z" fill="#fff"/></g><g id="change1_6"><path d="M91.2,42.11a8.94,8.94,0,0,0,1.2-2.51,9.78,9.78,0,0,0,.4-3A29.69,29.69,0,0,0,91.87,30a35.57,35.57,0,0,0-3.14-8.81,11,11,0,0,0-2.86-3.59,3,3,0,0,0-3.31-.46,5.78,5.78,0,0,0-2.51,3.05l-.06.15,0,.16c.75,3.44,1.48,6.71,2.19,9.78L82.6,32l.57-1.63c.76-2.13,1.47-2.86,1.94-3.1.22-.11.79-.4,1.74.67a7.16,7.16,0,0,1,1.36,2.62,11.19,11.19,0,0,1,.48,3.29A10.25,10.25,0,0,1,88.28,37a3.44,3.44,0,0,1-1.12,1.79,1.93,1.93,0,0,1-1.74.31l-.9-.23L84,38.71l0,.58c-.23,2.64-.46,5.37-.7,8.17l0,.61,1.46-.17a2,2,0,0,1,2.13,1,7.27,7.27,0,0,1,.73,3.75,24.12,24.12,0,0,1-.42,4.62,18.48,18.48,0,0,1-1.27,4.07,8.86,8.86,0,0,1-2.21,3.06c-1.25,1.06-1.76.56-2,.38A7.46,7.46,0,0,1,80,61.36L79.6,59.7l-.53,1.63c-1.08,3.32-2.24,7-3.53,11.16l0,.13,0,.14c.77,3,1.86,4.8,3.26,5.38a2.49,2.49,0,0,0,1,.21c1.19,0,2.47-.82,3.82-2.46A29.8,29.8,0,0,0,88.29,67a66.27,66.27,0,0,0,2.58-9.27,37.15,37.15,0,0,0,.81-7.41A14.57,14.57,0,0,0,91.11,46a5.8,5.8,0,0,0-1.27-2.41A5.69,5.69,0,0,0,91.2,42.11ZM88.76,43l-.94.37.87.52a4,4,0,0,1,1.47,2.36,14,14,0,0,1,.52,4.11,36.08,36.08,0,0,1-.79,7.23,65.5,65.5,0,0,1-2.54,9.12,29.16,29.16,0,0,1-4.51,8.56c-1,1.18-2.41,2.48-3.67,2-1-.44-2-2-2.63-4.57,1.08-3.51,2.07-6.64,3-9.52a6.24,6.24,0,0,0,1.39,2.34c.51.49,1.61,1.09,3.29-.33a9.82,9.82,0,0,0,2.47-3.41A18.35,18.35,0,0,0,88,57.43a25.29,25.29,0,0,0,.44-4.81,8.28,8.28,0,0,0-.87-4.27,3,3,0,0,0-3.11-1.44l-.24,0c.2-2.39.4-4.71.59-7l.32.08a2.89,2.89,0,0,0,2.59-.47,4.51,4.51,0,0,0,1.48-2.29,11.24,11.24,0,0,0,.45-3.45,11.8,11.8,0,0,0-.53-3.58,8.07,8.07,0,0,0-1.56-3c-1.21-1.36-2.27-1.24-2.94-.89a4.52,4.52,0,0,0-1.82,2.18C82.25,26,81.65,23.28,81,20.46a4.74,4.74,0,0,1,2-2.4,2.09,2.09,0,0,1,2.28.37,9.75,9.75,0,0,1,2.57,3.26,34.56,34.56,0,0,1,3.05,8.55,29,29,0,0,1,.9,6.36,8.85,8.85,0,0,1-.36,2.71,7.92,7.92,0,0,1-1.07,2.23A3.7,3.7,0,0,1,88.76,43Z" fill="#fff"/></g></svg>