<?xml version="1.0" encoding="UTF-8"?><svg xmlns="http://www.w3.org/2000/svg" xmlns:xlink="http://www.w3.org/1999/xlink" height="1053.3" preserveAspectRatio="xMidYMid meet" version="1.0" viewBox="-2.5 -3.1 1050.9 1053.3" width="1050.9" zoomAndPan="magnify"><defs><clipPath id="a"><path d="M 579 536 L 1048.421875 536 L 1048.421875 926 L 579 926 Z M 579 536"/></clipPath><clipPath id="b"><path d="M 201 538 L 528 538 L 528 1050.230469 L 201 1050.230469 Z M 201 538"/></clipPath></defs><g><g id="change1_1"><path d="M 501.351562 489.78125 C 507.953125 488.121094 506.605469 478.375 499.804688 478.5625 L 303.152344 468.339844 C 302.171875 466.605469 301.113281 464.894531 299.957031 463.207031 L 244.625 382.445312 L 162.296875 262.285156 C 158.449219 256.671875 149.777344 261.3125 152.3125 267.628906 C 152.3125 267.628906 256.992188 429.460938 190.933594 500.925781 C 156.667969 537.988281 4.042969 577.324219 4.042969 577.324219 C -2.46875 579.3125 -0.640625 588.976562 6.144531 588.453125 C 46.175781 585.359375 86.222656 582.453125 126.277344 579.660156 C 165.152344 576.953125 207.136719 578.554688 244.882812 568.765625 C 248.3125 567.875 251.722656 566.902344 255.101562 565.828125 C 274.144531 559.792969 292.019531 550.785156 310.042969 542.300781 C 327.753906 533.964844 343.6875 529.378906 362.402344 524.769531 C 382.109375 519.914062 401.773438 514.855469 421.460938 509.898438 C 448.089844 503.191406 474.722656 496.488281 501.351562 489.78125" fill="#85c536"/></g><g id="change1_2"><path d="M 308.730469 381.71875 C 295.390625 409.589844 304.972656 441.953125 330.136719 454 C 355.300781 466.046875 386.519531 453.21875 399.863281 425.347656 C 413.207031 397.476562 403.621094 365.113281 378.460938 353.066406 C 353.292969 341.019531 322.074219 353.847656 308.730469 381.71875" fill="#85c536"/></g><g id="change2_1"><path d="M 545.339844 448.394531 C 548.960938 454.15625 557.8125 449.867188 555.53125 443.457031 L 504.484375 253.269531 C 505.828125 251.800781 507.132812 250.265625 508.378906 248.644531 L 568.089844 171.0625 L 656.925781 55.632812 C 661.078125 50.242188 653.984375 43.429688 648.761719 47.789062 C 648.761719 47.789062 527.195312 197.355469 438.816406 156.609375 C 392.980469 135.476562 308.402344 2.480469 308.402344 2.480469 C 304.503906 -3.101562 295.875 1.621094 298.46875 7.910156 C 313.78125 45.03125 328.925781 82.222656 343.953125 119.453125 C 358.539062 155.585938 369.992188 196.011719 390.96875 228.886719 C 392.875 231.871094 394.855469 234.8125 396.917969 237.695312 C 408.542969 253.941406 422.632812 268.15625 436.273438 282.675781 C 449.675781 296.941406 458.957031 310.683594 469.125 327.054688 C 479.835938 344.300781 490.722656 361.4375 501.519531 378.628906 C 516.125 401.882812 530.734375 425.140625 545.339844 448.394531" fill="#f14624"/></g><g id="change2_2"><path d="M 588.589844 231.808594 C 557.960938 227.730469 530.144531 246.84375 526.460938 274.5 C 522.777344 302.15625 544.625 327.882812 575.257812 331.960938 C 605.890625 336.039062 633.703125 316.925781 637.386719 289.269531 C 641.066406 261.613281 619.222656 235.886719 588.589844 231.808594" fill="#f14624"/></g><g id="change3_1"><path d="M 598.292969 477.441406 C 593.933594 482.664062 600.746094 489.757812 606.140625 485.605469 L 771.246094 378.289062 C 773.058594 379.113281 774.917969 379.878906 776.847656 380.5625 L 869.078125 413.375 L 1006.308594 462.195312 C 1012.71875 464.476562 1017.011719 455.625 1011.25 452.003906 C 1011.25 452.003906 831.4375 382.609375 842.878906 285.964844 C 848.8125 235.839844 949.167969 114.304688 949.167969 114.304688 C 953.269531 108.871094 946.109375 102.125 940.929688 106.535156 C 910.359375 132.570312 879.671875 158.460938 848.902344 184.261719 C 819.046875 209.300781 784.140625 232.683594 759.355469 262.792969 C 757.105469 265.527344 754.917969 268.320312 752.816406 271.171875 C 740.957031 287.25 731.789062 305.039062 722.195312 322.5 C 712.769531 339.65625 702.570312 352.730469 690.144531 367.460938 C 677.050781 382.972656 664.117188 398.625 651.105469 414.203125 C 633.5 435.28125 615.898438 456.363281 598.292969 477.441406" fill="#ec058e"/></g><g id="change3_2"><path d="M 817.644531 451.644531 C 812.058594 421.253906 785.28125 400.703125 757.84375 405.75 C 730.402344 410.792969 712.6875 439.519531 718.273438 469.914062 C 723.863281 500.304688 750.636719 520.855469 778.074219 515.808594 C 805.515625 510.765625 823.230469 482.035156 817.644531 451.644531" fill="#ec058e"/></g><g clip-path="url(#a)" id="change4_2"><path d="M 587.035156 536.777344 C 580.71875 534.242188 576.078125 542.914062 581.691406 546.761719 L 734.777344 670.625 C 734.554688 672.601562 734.402344 674.609375 734.347656 676.652344 L 731.640625 774.511719 L 727.617188 920.117188 C 727.429688 926.917969 737.171875 928.261719 738.835938 921.664062 C 738.835938 921.664062 749.269531 729.207031 844.71875 710.222656 C 894.226562 700.378906 1040.820312 758.265625 1040.820312 758.265625 C 1047.261719 760.484375 1051.460938 751.589844 1045.660156 748.027344 C 1011.460938 726.996094 977.351562 705.8125 943.304688 684.523438 C 910.265625 663.867188 877.238281 637.894531 840.949219 623.628906 C 837.648438 622.332031 834.316406 621.113281 830.953125 619.996094 C 812 613.6875 792.246094 610.46875 772.679688 606.738281 C 753.449219 603.074219 737.863281 597.414062 720.015625 590.144531 C 701.214844 582.488281 682.332031 575.023438 663.492188 567.460938 C 638.007812 557.234375 612.519531 547.007812 587.035156 536.777344" fill="#98198e"/></g><g id="change4_1"><path d="M 679.351562 737.421875 C 706.527344 722.714844 717.796875 690.902344 704.519531 666.363281 C 691.242188 641.824219 658.445312 633.855469 631.269531 648.558594 C 604.089844 663.265625 592.820312 695.078125 606.097656 719.617188 C 619.375 744.15625 652.171875 752.128906 679.351562 737.421875" fill="#98198e"/></g><g clip-path="url(#b)" id="change5_1"><path d="M 527.121094 544.40625 C 527.578125 537.613281 517.898438 535.882812 515.976562 542.410156 L 445.480469 726.277344 C 443.53125 726.675781 441.574219 727.152344 439.613281 727.730469 L 345.707031 755.398438 L 205.988281 796.566406 C 199.460938 798.488281 201.191406 808.171875 207.980469 807.710938 C 207.980469 807.710938 394.242188 758.164062 441.792969 843.074219 C 466.457031 887.117188 456.703125 1044.429688 456.703125 1044.429688 C 456.582031 1051.230469 466.335938 1052.480469 467.9375 1045.871094 C 477.363281 1006.839844 486.972656 967.851562 496.699219 928.894531 C 506.136719 891.089844 520.632812 851.652344 522.984375 812.730469 C 523.199219 809.191406 523.324219 805.648438 523.351562 802.105469 C 523.496094 782.128906 520.453125 762.347656 517.953125 742.582031 C 515.496094 723.160156 516.0625 706.589844 517.457031 687.367188 C 518.929688 667.121094 520.195312 646.859375 521.566406 626.605469 C 523.417969 599.203125 525.269531 571.804688 527.121094 544.40625" fill="#51ade5"/></g><g id="change5_2"><path d="M 364.824219 694.203125 C 387.210938 715.507812 420.949219 716.394531 440.183594 696.183594 C 459.414062 675.976562 456.863281 642.320312 434.480469 621.015625 C 412.09375 599.714844 378.355469 598.828125 359.121094 619.035156 C 339.886719 639.246094 342.441406 672.902344 364.824219 694.203125" fill="#51ade5"/></g></g></svg>