<?xml version="1.0" encoding="UTF-8" standalone="no"?><svg xmlns="http://www.w3.org/2000/svg" xmlns:xlink="http://www.w3.org/1999/xlink" fill="#feffff" height="58" preserveAspectRatio="xMidYMid meet" version="1" viewBox="0.0 0.0 58.0 58.0" width="58" zoomAndPan="magnify"><g id="change1_1"><path d="M 26.203125 41.554688 L 29.957031 43.808594 C 30.167969 43.933594 30.40625 44 30.652344 44 C 31.394531 44 32 43.394531 32 42.652344 L 32 42.300781 C 32 41.835938 31.761719 41.40625 31.367188 41.15625 L 25.929688 37.761719 C 25.132812 37.261719 24.21875 37 23.28125 37 L 15.765625 37 L 10.925781 34.582031 L 7.875 44.359375 L 12.386719 47.066406 L 15.695312 47.894531 L 21.445312 42.140625 C 22.679688 40.90625 24.703125 40.65625 26.203125 41.554688" fill="inherit"/><path d="M 0 28.0625 L 0 46 L 5.265625 46 L 9.761719 31.613281 L 0 28.0625" fill="inherit"/><path d="M 18 6 L 50 6 L 50 8 L 18 8 Z M 18 2 L 50 2 L 50 4 L 18 4 Z M 29 20 C 31.207031 20 33 21.792969 33 24 C 33 25.859375 31.71875 27.410156 30 27.859375 L 30 30 L 28 30 L 28 27.859375 C 26.28125 27.410156 25 25.859375 25 24 L 27 24 C 27 25.101562 27.898438 26 29 26 C 30.101562 26 31 25.101562 31 24 C 31 22.898438 30.101562 22 29 22 C 26.792969 22 25 20.207031 25 18 C 25 16.140625 26.28125 14.589844 28 14.140625 L 28 12 L 30 12 L 30 14.140625 C 31.71875 14.589844 33 16.140625 33 18 L 31 18 C 31 16.898438 30.101562 16 29 16 C 27.898438 16 27 16.898438 27 18 C 27 19.101562 27.898438 20 29 20 Z M 12 12.132812 L 23.800781 20 L 12 27.867188 L 12 24 L 6 24 L 6 28.117188 L 12.238281 30.386719 L 11.53125 32.648438 L 16.234375 35 L 23.28125 35 C 24.34375 35 25.382812 35.253906 26.332031 35.714844 L 28.472656 34.644531 C 29.308594 34.226562 30.207031 33.984375 31.136719 33.921875 L 43.605469 33.089844 L 42.738281 30.320312 L 52 27.699219 L 52 24 L 46 24 L 46 27.867188 L 34.199219 20 L 46 12.132812 L 46 16 L 52 16 L 52 0 L 16 0 L 16 10 L 6 10 L 6 16 L 12 16 L 12 12.132812" fill="inherit"/><path d="M 28.878906 55.292969 C 28.691406 55.105469 28.433594 55 28.171875 55 L 28 55 C 27.449219 55 27 55.449219 27 56 L 27 56.171875 C 27 56.4375 27.105469 56.691406 27.292969 56.878906 L 28.121094 57.707031 C 28.308594 57.894531 28.566406 58 28.828125 58 L 29 58 C 29.550781 58 30 57.550781 30 57 L 30 56.828125 C 30 56.5625 29.894531 56.308594 29.707031 56.121094 L 28.878906 55.292969" fill="inherit"/><path d="M 14 24.132812 L 20.199219 20 L 14 15.867188 L 14 18 L 0 18 L 0 22 L 14 22 L 14 24.132812" fill="inherit"/><path d="M 14 0.496094 L 7.246094 8 L 14 8 Z M 14 0.496094" fill="inherit"/><path d="M 49.734375 46 L 58 46 L 58 28.039062 L 45.261719 31.679688 L 49.734375 46" fill="inherit"/><path d="M 54 18 L 44 18 L 44 15.867188 L 37.800781 20 L 44 24.132812 L 44 22 L 58 22 L 58 18 L 54 18" fill="inherit"/><path d="M 31.269531 35.917969 C 30.605469 35.960938 29.964844 36.136719 29.367188 36.433594 L 28.375 36.929688 L 32.425781 39.460938 C 33.410156 40.078125 34 41.140625 34 42.300781 L 34 42.652344 C 34 44.496094 32.496094 46 30.652344 46 C 30.042969 46 29.449219 45.835938 28.925781 45.523438 L 25.171875 43.269531 C 24.445312 42.832031 23.460938 42.953125 22.859375 43.554688 L 16.328125 50.085938 C 16.117188 50.296875 16 50.578125 16 50.878906 C 16 51.496094 16.503906 52 17.121094 52 C 17.414062 52 17.707031 51.878906 17.914062 51.671875 L 23.292969 46.292969 L 24.707031 47.707031 L 19.328125 53.085938 C 19.117188 53.296875 19 53.578125 19 53.878906 C 19 54.496094 19.503906 55 20.121094 55 C 20.414062 55 20.707031 54.878906 20.914062 54.671875 L 26.292969 49.292969 L 27.707031 50.707031 L 23.328125 55.085938 C 23.117188 55.296875 23 55.578125 23 55.878906 C 23 56.496094 23.503906 57 24.121094 57 C 24.414062 57 24.707031 56.878906 24.914062 56.671875 L 25.035156 56.550781 C 25.023438 56.425781 25 56.300781 25 56.171875 L 25 56 C 25 54.34375 26.34375 53 28 53 L 28.171875 53 C 28.457031 53 28.730469 53.054688 29 53.128906 L 29 53 C 29 51.34375 30.34375 50 32 50 C 32.386719 50 32.761719 50.09375 33.109375 50.234375 C 33.453125 48.953125 34.613281 48 36 48 C 36.386719 48 36.761719 48.09375 37.109375 48.234375 C 37.453125 46.953125 38.613281 46 40 46 C 40.941406 46 41.835938 46.449219 42.402344 47.199219 L 42.867188 47.824219 L 47.140625 44.40625 L 44.21875 35.054688 L 31.269531 35.917969" fill="inherit"/><path d="M 40.800781 48.398438 C 40.613281 48.148438 40.3125 48 40 48 C 39.449219 48 39 48.449219 39 49 L 39 49.332031 C 39 49.546875 39.070312 49.761719 39.199219 49.933594 L 41.199219 52.601562 C 41.386719 52.851562 41.6875 53 42 53 C 42.550781 53 43 52.550781 43 52 L 43 51.667969 C 43 51.453125 42.929688 51.238281 42.800781 51.066406 L 40.800781 48.398438" fill="inherit"/><path d="M 36.800781 50.398438 C 36.613281 50.148438 36.3125 50 36 50 C 35.449219 50 35 50.449219 35 51 L 35 51.332031 C 35 51.546875 35.070312 51.761719 35.199219 51.933594 L 37.199219 54.601562 C 37.386719 54.851562 37.6875 55 38 55 C 38.550781 55 39 54.550781 39 54 L 39 53.667969 C 39 53.453125 38.929688 53.238281 38.800781 53.066406 L 36.800781 50.398438" fill="inherit"/><path d="M 32.800781 52.398438 C 32.613281 52.148438 32.3125 52 32 52 C 31.449219 52 31 52.449219 31 53 L 31 53.332031 C 31 53.546875 31.070312 53.761719 31.199219 53.933594 L 33.199219 56.601562 C 33.386719 56.851562 33.6875 57 34 57 C 34.550781 57 35 56.550781 35 56 L 35 55.667969 C 35 55.453125 34.929688 55.238281 34.800781 55.066406 L 32.800781 52.398438" fill="inherit"/></g></svg>