<?xml version="1.0" encoding="UTF-8"?><svg xmlns="http://www.w3.org/2000/svg" fill="none" height="32" style="fill: none;" viewBox="0 0 32 32" width="32"><path d="M31 16C31 24.2843 24.2843 31 16 31C7.71573 31 1 24.2843 1 16C1 7.71573 7.71573 1 16 1C24.2843 1 31 7.71573 31 16Z" fill="url(#paint0_linear_1283_2421)"/><g id="change1_1"><path clip-rule="evenodd" d="M15.6 8C13.6118 8 12 9.61178 12 11.6V12.8C10.8954 12.8 10 13.6954 10 14.8V22C10 23.1046 10.8954 24 12 24H20C21.1046 24 22 23.1046 22 22V14.8C22 13.6954 21.1046 12.8 20 12.8V11.6C20 9.61177 18.3882 8 16.4 8H15.6ZM18.4 12.8V11.6C18.4 10.4954 17.5046 9.6 16.4 9.6H15.6C14.4954 9.6 13.6 10.4954 13.6 11.6V12.8H18.4ZM12.8 14.4H19.2H20C20.2209 14.4 20.4 14.5791 20.4 14.8V22C20.4 22.2209 20.2209 22.4 20 22.4H12C11.7791 22.4 11.6 22.2209 11.6 22V14.8C11.6 14.5791 11.7791 14.4 12 14.4H12.8ZM15.6 17.2C15.6 16.9791 15.7791 16.8 16 16.8C16.2209 16.8 16.4 16.9791 16.4 17.2C16.4 17.4209 16.2209 17.6 16 17.6C15.7791 17.6 15.6 17.4209 15.6 17.2ZM17.7694 18.1333C17.9166 17.8546 18 17.5371 18 17.2C18 16.0954 17.1046 15.2 16 15.2C14.8954 15.2 14 16.0954 14 17.2C14 17.5371 14.0834 17.8546 14.2306 18.1333C13.3683 18.7065 12.8 19.6869 12.8 20.8C12.8 21.2418 13.1582 21.6 13.6 21.6H18.4C18.8418 21.6 19.2 21.2418 19.2 20.8C19.2 19.6869 18.6317 18.7065 17.7694 18.1333ZM16 19.2C15.4078 19.2 14.8907 19.5218 14.6141 20H17.3859C17.1093 19.5218 16.5922 19.2 16 19.2Z" fill="#fff" fill-rule="evenodd"/></g><defs><linearGradient gradientUnits="userSpaceOnUse" id="paint0_linear_1283_2421" x1="16" x2="16" y1="1" y2="31"><stop stop-color="#F857A6"/><stop offset="1" stop-color="#FF585A"/></linearGradient></defs></svg>