<?xml version="1.0" encoding="UTF-8" standalone="no"?><svg xmlns="http://www.w3.org/2000/svg" xmlns:xlink="http://www.w3.org/1999/xlink" fill="#000000" height="44" preserveAspectRatio="xMidYMid meet" version="1" viewBox="0.0 0.0 44.0 44.0" width="44" zoomAndPan="magnify"><g fill="#ffffff" id="change1_1"><path d="M 39.867188 24.179688 C 38.660156 24.179688 37.6875 23.207031 37.6875 22 C 37.6875 20.792969 38.660156 19.820312 39.867188 19.820312 C 41.078125 19.820312 42.050781 20.792969 42.050781 22 C 42.050781 23.207031 41.078125 24.179688 39.867188 24.179688 Z M 35.226562 30.585938 C 35.042969 30.539062 34.808594 30.539062 34.625 30.539062 C 33.835938 30.539062 33.140625 30.773438 32.488281 31.144531 L 30.214844 28.867188 C 31.746094 27.011719 32.71875 24.597656 32.71875 22 C 32.71875 19.402344 31.792969 16.988281 30.214844 15.132812 L 32.488281 12.855469 C 33.09375 13.226562 33.835938 13.460938 34.625 13.460938 C 34.855469 13.460938 35.042969 13.414062 35.226562 13.414062 L 37.410156 18.660156 C 36.390625 19.402344 35.691406 20.609375 35.691406 22 C 35.691406 23.394531 36.34375 24.550781 37.410156 25.34375 Z M 34.625 36.851562 C 33.417969 36.851562 32.445312 35.875 32.445312 34.667969 C 32.445312 33.464844 33.417969 32.488281 34.625 32.488281 C 35.832031 32.488281 36.804688 33.464844 36.804688 34.667969 C 36.804688 35.875 35.832031 36.851562 34.625 36.851562 Z M 25.292969 37.457031 C 24.550781 36.433594 23.34375 35.738281 21.953125 35.738281 C 20.609375 35.738281 19.402344 36.386719 18.613281 37.457031 L 13.367188 35.273438 C 13.414062 35.085938 13.414062 34.855469 13.414062 34.667969 C 13.414062 33.882812 13.179688 33.140625 12.808594 32.535156 L 15.085938 30.261719 C 16.941406 31.792969 19.355469 32.769531 21.953125 32.769531 C 24.550781 32.769531 26.96875 31.839844 28.824219 30.261719 L 31.097656 32.535156 C 30.726562 33.140625 30.492188 33.882812 30.492188 34.667969 C 30.492188 34.902344 30.539062 35.085938 30.539062 35.273438 Z M 21.953125 42.097656 C 20.746094 42.097656 19.773438 41.121094 19.773438 39.914062 C 19.773438 38.707031 20.746094 37.734375 21.953125 37.734375 C 23.160156 37.734375 24.136719 38.707031 24.136719 39.914062 C 24.136719 41.121094 23.160156 42.097656 21.953125 42.097656 Z M 9.28125 36.851562 C 8.078125 36.851562 7.101562 35.875 7.101562 34.667969 C 7.101562 33.464844 8.078125 32.488281 9.28125 32.488281 C 10.488281 32.488281 11.464844 33.464844 11.464844 34.667969 C 11.464844 35.875 10.488281 36.851562 9.28125 36.851562 Z M 6.5 25.34375 C 7.519531 24.597656 8.214844 23.394531 8.214844 22 C 8.214844 20.65625 7.566406 19.449219 6.5 18.65625 L 8.679688 13.414062 C 8.863281 13.460938 9.097656 13.460938 9.28125 13.460938 C 10.074219 13.460938 10.816406 13.226562 11.417969 12.855469 L 13.691406 15.132812 C 12.160156 16.988281 11.1875 19.402344 11.1875 22 C 11.1875 24.597656 12.113281 27.011719 13.691406 28.867188 L 11.417969 31.144531 C 10.816406 30.773438 10.074219 30.539062 9.28125 30.539062 C 9.050781 30.539062 8.867188 30.585938 8.679688 30.585938 Z M 1.855469 22 C 1.855469 20.792969 2.832031 19.820312 4.039062 19.820312 C 5.246094 19.820312 6.21875 20.792969 6.21875 22 C 6.21875 23.207031 5.246094 24.179688 4.039062 24.179688 C 2.832031 24.179688 1.855469 23.207031 1.855469 22 Z M 9.28125 7.148438 C 10.488281 7.148438 11.464844 8.121094 11.464844 9.328125 C 11.464844 10.535156 10.488281 11.511719 9.28125 11.511719 C 8.078125 11.511719 7.101562 10.535156 7.101562 9.328125 C 7.101562 8.121094 8.074219 7.148438 9.28125 7.148438 Z M 21.953125 30.773438 C 17.128906 30.773438 13.183594 26.828125 13.183594 22 C 13.183594 17.171875 17.128906 13.226562 21.953125 13.226562 C 26.78125 13.226562 30.726562 17.171875 30.726562 22 C 30.726562 26.828125 26.78125 30.773438 21.953125 30.773438 Z M 18.613281 6.542969 C 19.355469 7.566406 20.5625 8.261719 21.953125 8.261719 C 23.300781 8.261719 24.507812 7.566406 25.292969 6.542969 L 30.539062 8.726562 C 30.492188 8.910156 30.492188 9.144531 30.492188 9.328125 C 30.492188 10.117188 30.726562 10.859375 31.097656 11.464844 L 28.824219 13.738281 C 26.96875 12.207031 24.550781 11.230469 21.953125 11.230469 C 19.355469 11.230469 16.941406 12.160156 15.085938 13.738281 L 12.8125 11.464844 C 13.183594 10.859375 13.414062 10.117188 13.414062 9.328125 C 13.414062 9.097656 13.367188 8.910156 13.367188 8.726562 Z M 21.953125 1.902344 C 23.160156 1.902344 24.136719 2.878906 24.136719 4.085938 C 24.136719 5.289062 23.160156 6.265625 21.953125 6.265625 C 20.746094 6.265625 19.773438 5.289062 19.773438 4.085938 C 19.773438 2.878906 20.746094 1.902344 21.953125 1.902344 Z M 34.625 7.148438 C 35.832031 7.148438 36.804688 8.121094 36.804688 9.328125 C 36.804688 10.535156 35.832031 11.511719 34.625 11.511719 C 33.417969 11.511719 32.445312 10.535156 32.445312 9.328125 C 32.445312 8.121094 33.417969 7.148438 34.625 7.148438 Z M 39.867188 17.867188 C 39.636719 17.867188 39.453125 17.914062 39.265625 17.914062 L 37.085938 12.671875 C 38.105469 11.929688 38.800781 10.722656 38.800781 9.328125 C 38.800781 7.054688 36.945312 5.199219 34.671875 5.199219 C 33.324219 5.199219 32.117188 5.847656 31.328125 6.914062 L 26.085938 4.734375 C 26.132812 4.546875 26.132812 4.316406 26.132812 4.132812 C 26.132812 1.855469 24.273438 0 22 0 C 19.726562 0 17.867188 1.855469 17.867188 4.132812 C 17.867188 4.363281 17.914062 4.546875 17.914062 4.734375 L 12.671875 6.914062 C 11.929688 5.894531 10.722656 5.199219 9.328125 5.199219 C 7.054688 5.199219 5.199219 7.054688 5.199219 9.328125 C 5.199219 10.675781 5.847656 11.882812 6.914062 12.671875 L 4.734375 17.914062 C 4.550781 17.867188 4.316406 17.867188 4.132812 17.867188 C 1.855469 17.867188 0 19.726562 0 22 C 0 24.273438 1.855469 26.132812 4.132812 26.132812 C 4.363281 26.132812 4.546875 26.085938 4.734375 26.085938 L 6.914062 31.328125 C 5.894531 32.074219 5.199219 33.277344 5.199219 34.671875 C 5.199219 36.945312 7.054688 38.800781 9.328125 38.800781 C 10.675781 38.800781 11.882812 38.152344 12.671875 37.082031 L 17.914062 39.265625 C 17.867188 39.449219 17.867188 39.683594 17.867188 39.867188 C 17.867188 42.144531 19.726562 44 22 44 C 24.273438 44 26.132812 42.144531 26.132812 39.867188 C 26.132812 39.636719 26.085938 39.449219 26.085938 39.265625 L 31.328125 37.082031 C 32.074219 38.105469 33.277344 38.800781 34.671875 38.800781 C 36.945312 38.800781 38.800781 36.945312 38.800781 34.671875 C 38.800781 33.324219 38.152344 32.117188 37.085938 31.328125 L 39.265625 26.085938 C 39.453125 26.132812 39.683594 26.132812 39.867188 26.132812 C 42.144531 26.132812 44 24.273438 44 22 C 44 19.726562 42.144531 17.867188 39.867188 17.867188"/><path d="M 25.203125 24.414062 C 25.203125 24.738281 24.921875 25.015625 24.597656 25.015625 C 24.273438 25.015625 23.996094 24.738281 23.996094 24.414062 L 23.996094 21.722656 C 23.996094 21.398438 24.273438 21.117188 24.597656 21.117188 C 24.921875 21.117188 25.203125 21.398438 25.203125 21.722656 Z M 22.558594 24.414062 C 22.558594 24.738281 22.277344 25.015625 21.953125 25.015625 C 21.628906 25.015625 21.351562 24.738281 21.351562 24.414062 L 21.351562 21.722656 C 21.351562 21.398438 21.628906 21.117188 21.953125 21.117188 C 22.277344 21.117188 22.558594 21.398438 22.558594 21.722656 Z M 19.867188 24.414062 C 19.867188 24.738281 19.585938 25.015625 19.261719 25.015625 C 18.9375 25.015625 18.660156 24.738281 18.660156 24.414062 L 18.660156 21.722656 C 18.660156 21.398438 18.9375 21.117188 19.261719 21.117188 C 19.585938 21.117188 19.867188 21.398438 19.867188 21.722656 Z M 27.105469 19.492188 L 26.269531 19.492188 L 24.738281 16.617188 C 24.550781 16.289062 24.136719 16.152344 23.765625 16.335938 C 23.441406 16.523438 23.300781 16.941406 23.484375 17.3125 L 24.691406 19.492188 L 19.214844 19.492188 L 20.421875 17.3125 C 20.609375 16.988281 20.46875 16.570312 20.144531 16.335938 C 19.820312 16.152344 19.402344 16.289062 19.167969 16.617188 L 17.589844 19.492188 L 16.757812 19.492188 C 16.199219 19.492188 15.78125 20.003906 15.875 20.558594 L 16.988281 25.898438 C 17.082031 26.316406 17.453125 26.59375 17.871094 26.59375 L 25.992188 26.59375 C 26.410156 26.59375 26.78125 26.316406 26.875 25.898438 L 27.988281 20.5625 C 28.128906 20.003906 27.710938 19.492188 27.105469 19.492188"/></g></svg>