<?xml version="1.0" encoding="UTF-8"?><svg xmlns="http://www.w3.org/2000/svg" xmlns:xlink="http://www.w3.org/1999/xlink" height="368.6" preserveAspectRatio="xMidYMid meet" version="1.0" viewBox="0.0 0.0 362.7 368.6" width="362.7" zoomAndPan="magnify"><g fill-rule="evenodd"><g id="change1_1"><path d="M 181.351562 0 L 209.464844 30.613281 L 245.65625 11.53125 L 260.199219 49.421875 L 300.109375 43.351562 L 300.839844 83.667969 L 340.503906 91.285156 L 327.804688 129.796875 L 362.707031 151.21875 L 337.578125 184.320312 L 362.707031 217.421875 L 327.804688 238.84375 L 340.503906 277.351562 L 300.839844 284.972656 L 300.109375 325.289062 L 260.199219 319.21875 L 245.65625 357.109375 L 209.464844 338.027344 L 181.351562 368.640625 L 153.242188 338.027344 L 117.050781 357.109375 L 102.507812 319.21875 L 62.59375 325.289062 L 61.867188 284.972656 L 22.203125 277.351562 L 34.902344 238.84375 L 0 217.421875 L 25.128906 184.320312 L 0 151.21875 L 34.902344 129.796875 L 22.203125 91.285156 L 61.867188 83.671875 L 62.59375 43.351562 L 102.507812 49.421875 L 117.046875 11.53125 L 153.242188 30.613281 L 181.351562 0" fill="#ef5350"/></g><g id="change2_1"><path d="M 181.351562 61.441406 C 249.21875 61.441406 304.234375 116.453125 304.234375 184.320312 C 304.234375 252.183594 249.21875 307.199219 181.351562 307.199219 C 113.488281 307.199219 58.472656 252.183594 58.472656 184.320312 C 58.472656 116.453125 113.488281 61.441406 181.351562 61.441406" fill="#bf3531"/></g><g id="change3_1"><path d="M 105.007812 169.800781 L 105.007812 177.71875 L 125.757812 177.71875 L 125.757812 189.972656 L 105.007812 189.972656 L 105.007812 211.09375 L 91.121094 211.09375 L 91.121094 157.546875 L 129.046875 157.546875 L 129.046875 169.800781 Z M 167.609375 188.109375 C 168.363281 188.726562 169.078125 189.390625 169.742188 190.101562 C 171.921875 192.441406 173.972656 195.746094 175.671875 198.457031 L 183.589844 211.09375 L 167.09375 211.09375 L 159.269531 199.421875 C 158.214844 197.855469 157.152344 196.285156 156.046875 194.757812 C 155.480469 193.972656 154.839844 193.070312 154.175781 192.367188 C 153.542969 191.695312 152.789062 191.097656 151.914062 190.789062 C 150.730469 190.371094 148.738281 190.34375 147.496094 190.34375 L 147.390625 190.34375 L 147.390625 211.09375 L 133.503906 211.09375 L 133.503906 157.546875 L 156.558594 157.546875 C 160.28125 157.546875 165.273438 157.703125 168.796875 159.007812 C 171.660156 160.066406 173.90625 161.960938 175.539062 164.539062 C 177.242188 167.226562 178.003906 170.222656 178.003906 173.402344 C 178.003906 177.339844 176.878906 180.984375 174.21875 183.933594 C 172.410156 185.941406 170.105469 187.261719 167.609375 188.109375 Z M 197.503906 169.800781 L 197.503906 176.976562 L 222.453125 176.976562 L 222.453125 189.1875 L 197.503906 189.1875 L 197.503906 198.875 L 225.269531 198.875 L 225.269531 211.09375 L 183.628906 211.09375 L 183.628906 157.546875 L 224.316406 157.546875 L 224.316406 169.800781 Z M 243.820312 169.800781 L 243.820312 176.976562 L 268.773438 176.976562 L 268.773438 189.1875 L 243.820312 189.1875 L 243.820312 198.875 L 271.585938 198.875 L 271.585938 211.09375 L 229.945312 211.09375 L 229.945312 157.546875 L 270.636719 157.546875 L 270.636719 169.800781 Z M 147.390625 178.5625 L 152.886719 178.5625 C 154.796875 178.5625 156.726562 178.546875 158.628906 178.421875 C 159.363281 178.371094 160.605469 178.296875 161.300781 178.0625 C 162.070312 177.800781 162.683594 177.367188 163.140625 176.695312 C 163.664062 175.921875 163.824219 174.96875 163.824219 174.050781 C 163.824219 173.039062 163.628906 172.035156 162.953125 171.253906 C 162.273438 170.46875 161.34375 170.09375 160.335938 169.941406 C 159.671875 169.84375 158.816406 169.847656 158.140625 169.835938 C 156.527344 169.800781 154.910156 169.800781 153.292969 169.800781 L 147.390625 169.800781 L 147.390625 178.5625" fill="#f2db44"/></g></g></svg>