<?xml version="1.0" encoding="UTF-8" standalone="no"?><svg xmlns="http://www.w3.org/2000/svg" xmlns:xlink="http://www.w3.org/1999/xlink" fill="#000000" height="18" preserveAspectRatio="xMidYMid meet" version="1" viewBox="5.0 3.0 15.0 18.0" width="15" zoomAndPan="magnify"><g id="change1_1"><path d="M20,4.36v11H19a6.872,6.872,0,0,1-2.483-.411,4.966,4.966,0,0,0-1.853-.309,4.956,4.956,0,0,0-1.852.309,6.881,6.881,0,0,1-2.483.411,6.858,6.858,0,0,1-2.48-.411A5.78,5.78,0,0,0,7,14.721V21H5V3H7v.7a7.1,7.1,0,0,1,1.483.349,4.966,4.966,0,0,0,1.853.309,4.956,4.956,0,0,0,1.852-.309,6.881,6.881,0,0,1,2.483-.411,6.858,6.858,0,0,1,2.48.411A4.946,4.946,0,0,0,19,4.36Z" fill="#feffff"/></g></svg>