<?xml version="1.0" encoding="UTF-8"?><svg xmlns="http://www.w3.org/2000/svg" xmlns:xlink="http://www.w3.org/1999/xlink" clip-rule="evenodd" fill-rule="evenodd" height="1711.0" image-rendering="optimizeQuality" preserveAspectRatio="xMidYMid meet" shape-rendering="geometricPrecision" text-rendering="geometricPrecision" version="1.0" viewBox="636.0 313.0 1061.0 1711.0" width="1061.0" zoomAndPan="magnify"><g><g id="change1_1"><path d="M1205 756c22,0 40,-18 40,-40 0,-22 -18,-40 -40,-40l-380 0c-52,0 -99,21 -133,55 -34,34 -56,82 -56,134 0,52 22,99 56,133 34,34 81,56 133,56l446 0 237 0c30,0 57,12 77,32 20,19 32,47 32,77 0,29 -12,57 -32,76 -20,20 -47,32 -77,32l-556 0c-52,0 -99,22 -133,56 -34,34 -56,81 -56,133 0,52 22,100 56,134 34,34 81,55 133,55l378 0c29,0 57,13 76,32 20,20 32,47 32,77 0,30 -12,57 -32,77 -19,20 -47,32 -76,32l-648 0c-22,0 -40,18 -40,40 0,22 18,40 40,40l648 0c52,0 99,-21 133,-55 34,-34 55,-82 55,-134 0,-52 -21,-99 -55,-133 -34,-34 -81,-56 -133,-56l-378 0c-30,0 -57,-12 -77,-32 -19,-19 -32,-47 -32,-77 0,-30 13,-57 32,-77 20,-19 47,-32 77,-32l556 0c52,0 99,-21 133,-55 35,-34 56,-81 56,-133 0,-52 -21,-100 -56,-134 -34,-34 -81,-55 -133,-55l-237 0 -446 0c-29,0 -57,-13 -76,-32 -20,-20 -33,-47 -33,-77 0,-30 13,-58 33,-77 19,-20 47,-32 76,-32l380 0z" fill="#006ea7" fill-rule="nonzero"/></g><g id="change1_2"><path d="M1205 313c48,0 91,20 123,51 31,31 50,75 50,122 0,68 -70,160 -116,220 -10,13 -19,25 -24,33l0 0c-13,18 -38,22 -56,9 -5,-3 -8,-7 -11,-12 -6,-7 -14,-18 -23,-30 -46,-60 -116,-152 -116,-220 0,-47 19,-91 51,-122 31,-31 74,-51 122,-51zm66 108c-17,-17 -40,-28 -66,-28 -26,0 -49,11 -66,28 -17,16 -27,40 -27,65 0,39 54,112 93,163 40,-51 93,-124 93,-163 0,-25 -10,-49 -27,-65z" fill="#006ea7" fill-rule="nonzero"/></g><g id="change1_3"><circle cx="1205" cy="472" fill="#006ea7" r="40"/></g><g id="change1_4"><path d="M727 2008c15,16 41,16 56,0 16,-15 16,-41 0,-56l-44 -45 44 -44c16,-16 16,-41 0,-57 -15,-15 -41,-15 -56,0l-73 73 0 0c-16,16 -16,41 0,57l0 0 73 72z" fill="#006ea7" fill-rule="nonzero"/></g><g id="change2_1"><path d="M1112 486c0,39 54,112 93,163 40,-51 93,-124 93,-163 0,-25 -10,-49 -27,-65 -17,-17 -40,-28 -66,-28 -26,0 -49,11 -66,28 -17,16 -27,40 -27,65zm133 -14c0,22 -18,40 -40,40 -22,0 -40,-18 -40,-40 0,-22 18,-40 40,-40 22,0 40,18 40,40z" fill="#9dcdf1"/></g></g><path d="M0 0H2333V2333H0z" fill="none"/></svg>